<svg width="200" height="200" xmlns="http://www.w3.org/2000/svg">
  <rect width="200" height="200" fill="#ffffff" stroke="#000000" stroke-width="2"/>
  
  <!-- QR Code Pattern Simulation -->
  <g fill="#000000">
    <!-- Corner squares -->
    <rect x="10" y="10" width="50" height="50"/>
    <rect x="140" y="10" width="50" height="50"/>
    <rect x="10" y="140" width="50" height="50"/>
    
    <!-- Inner corners -->
    <rect x="20" y="20" width="30" height="30" fill="#ffffff"/>
    <rect x="150" y="20" width="30" height="30" fill="#ffffff"/>
    <rect x="20" y="150" width="30" height="30" fill="#ffffff"/>
    
    <!-- Center squares -->
    <rect x="30" y="30" width="10" height="10"/>
    <rect x="160" y="30" width="10" height="10"/>
    <rect x="30" y="160" width="10" height="10"/>
    
    <!-- Random QR pattern -->
    <rect x="70" y="10" width="10" height="10"/>
    <rect x="90" y="10" width="10" height="10"/>
    <rect x="110" y="10" width="10" height="10"/>
    <rect x="10" y="70" width="10" height="10"/>
    <rect x="10" y="90" width="10" height="10"/>
    <rect x="10" y="110" width="10" height="10"/>
    
    <!-- Central alignment pattern -->
    <rect x="85" y="85" width="30" height="30"/>
    <rect x="95" y="95" width="10" height="10" fill="#ffffff"/>
    
    <!-- More random patterns -->
    <rect x="70" y="30" width="10" height="10"/>
    <rect x="70" y="50" width="10" height="10"/>
    <rect x="90" y="50" width="10" height="10"/>
    <rect x="110" y="30" width="10" height="10"/>
    <rect x="130" y="50" width="10" height="10"/>
    <rect x="50" y="70" width="10" height="10"/>
    <rect x="50" y="90" width="10" height="10"/>
    <rect x="30" y="110" width="10" height="10"/>
    <rect x="50" y="130" width="10" height="10"/>
    <rect x="70" y="150" width="10" height="10"/>
    <rect x="90" y="150" width="10" height="10"/>
    <rect x="110" y="150" width="10" height="10"/>
    <rect x="130" y="130" width="10" height="10"/>
    <rect x="150" y="70" width="10" height="10"/>
    <rect x="150" y="90" width="10" height="10"/>
    <rect x="150" y="110" width="10" height="10"/>
    <rect x="170" y="130" width="10" height="10"/>
    <rect x="170" y="150" width="10" height="10"/>
    <rect x="170" y="170" width="10" height="10"/>
  </g>
  
  <!-- Text label -->
  <text x="100" y="220" text-anchor="middle" font-family="Arial" font-size="12" fill="#666">
    QR Code สำหรับการชำระเงิน
  </text>
</svg>